<svg xmlns="http://www.w3.org/2000/svg" version="1.1" xmlns:xlink="http://www.w3.org/1999/xlink" xmlns:svgjs="http://svgjs.com/svgjs" width="1440" height="500" preserveAspectRatio="none" viewBox="0 0 1440 500"><g mask="url(&quot;#SvgjsMask1024&quot;)" fill="none"><rect width="1440" height="500" x="0" y="0" fill="rgba(64, 61, 65, 1)"></rect><path d="M22 500L522 0L756 0L256 500z" fill="url(#SvgjsLinearGradient1025)"></path><path d="M331.8 500L831.8 0L1085.3 0L585.3 500z" fill="url(#SvgjsLinearGradient1025)"></path><path d="M650.6 500L1150.6 0L1563.1 0L1063.1 500z" fill="url(#SvgjsLinearGradient1025)"></path><path d="M1403 500L903 0L528 0L1028 500z" fill="url(#SvgjsLinearGradient1026)"></path><path d="M1078.2 500L578.2 0L425.20000000000005 0L925.2 500z" fill="url(#SvgjsLinearGradient1026)"></path><path d="M781.4 500L281.4 0L149.39999999999998 0L649.4 500z" fill="url(#SvgjsLinearGradient1026)"></path><path d="M1154.6462659544454 500L1440 214.64626595444537L1440 500z" fill="url(#SvgjsLinearGradient1025)"></path><path d="M0 500L285.35373404555463 500L 0 214.64626595444537z" fill="url(#SvgjsLinearGradient1026)"></path></g><defs><mask id="SvgjsMask1024"><rect width="1440" height="500" fill="#ffffff"></rect></mask><linearGradient x1="0%" y1="100%" x2="100%" y2="0%" id="SvgjsLinearGradient1025"><stop stop-color="rgba(134, 128, 136, 1)" offset="0"></stop><stop stop-opacity="0" stop-color="rgba(134, 128, 136, 1)" offset="0.66"></stop></linearGradient><linearGradient x1="100%" y1="100%" x2="0%" y2="0%" id="SvgjsLinearGradient1026"><stop stop-color="rgba(134, 128, 136, 1)" offset="0"></stop><stop stop-opacity="0" stop-color="rgba(134, 128, 136, 1)" offset="0.66"></stop></linearGradient></defs></svg>